<?xml version="1.0" encoding="iso-8859-1"?>
<!-- Generator: Adobe Illustrator 16.0.0, SVG Export Plug-In . SVG Version: 6.00 Build 0)  -->
<!DOCTYPE svg PUBLIC "-//W3C//DTD SVG 1.1//EN" "http://www.w3.org/Graphics/SVG/1.1/DTD/svg11.dtd">
<svg version="1.1" id="Capa_1" xmlns="http://www.w3.org/2000/svg" xmlns:xlink="http://www.w3.org/1999/xlink" x="0px" y="0px"
	 width="775.199px" height="775.199px" viewBox="0 0 775.199 775.199" style="enable-background:new 0 0 775.199 775.199;"
	 xml:space="preserve">
<g>
	<g>
		<path d="M163.2,652.801H408c0-14.076,1.795-27.744,5.141-40.801H163.2V652.801z"/>
		<path d="M612,489.6h-40.801c14.076,0,27.744,1.795,40.801,5.141V489.6z"/>
		<polygon points="612,775.199 612,693.6 693.6,693.6 693.6,612 612,612 612,530.4 530.399,530.4 530.399,612 448.8,612 
			448.8,693.6 530.399,693.6 530.399,775.199 		"/>
		<path d="M571.199,489.6h-408V530.4h300.043C492.007,505.023,529.828,489.6,571.199,489.6z"/>
		<rect x="163.2" y="367.2" width="448.8" height="40.8"/>
		<path d="M693.6,8.568c0-4.732-3.754-8.568-8.405-8.568H90.004C85.353,0,81.6,3.794,81.6,8.568v758.065
			c0,4.732,3.753,8.566,8.405,8.566h373.239c-13.22-11.668-24.521-25.459-33.416-40.799H122.399V40.8h530.4v470.627
			c15.341,8.895,29.131,20.197,40.8,33.416V8.568z"/>
		<rect x="163.2" y="244.8" width="448.8" height="40.8"/>
		<rect x="163.2" y="122.4" width="448.8" height="40.8"/>
	</g>
</g>
<g>
</g>
<g>
</g>
<g>
</g>
<g>
</g>
<g>
</g>
<g>
</g>
<g>
</g>
<g>
</g>
<g>
</g>
<g>
</g>
<g>
</g>
<g>
</g>
<g>
</g>
<g>
</g>
<g>
</g>
</svg>
