<?xml version="1.0" encoding="iso-8859-1"?>
<!-- Generator: Adobe Illustrator 19.0.0, SVG Export Plug-In . SVG Version: 6.00 Build 0)  -->
<svg version="1.1" id="Layer_1" xmlns="http://www.w3.org/2000/svg" xmlns:xlink="http://www.w3.org/1999/xlink" x="0px" y="0px"
	 viewBox="0 0 512 512" style="enable-background:new 0 0 512 512;" xml:space="preserve">
<g>
	<g>
		<path d="M89.872,40.851c-13.515,0-24.511,10.995-24.511,24.511c0,13.516,10.995,24.511,24.511,24.511
			c13.515,0,24.511-10.996,24.511-24.511C114.383,51.847,103.387,40.851,89.872,40.851z M89.872,73.532
			c-4.506,0-8.17-3.666-8.17-8.17s3.665-8.17,8.17-8.17c4.506,0,8.17,3.665,8.17,8.17C98.043,69.867,94.378,73.532,89.872,73.532z"
			/>
	</g>
</g>
<g>
	<g>
		<path d="M367.66,40.851c-13.516,0-24.511,10.995-24.511,24.511c0,13.516,10.995,24.511,24.511,24.511
			c13.516,0,24.511-10.995,24.511-24.511C392.17,51.846,381.175,40.851,367.66,40.851z M367.66,73.532
			c-4.506,0-8.17-3.666-8.17-8.17s3.665-8.17,8.17-8.17c4.506,0,8.17,3.665,8.17,8.17C375.83,69.867,372.165,73.532,367.66,73.532z"
			/>
	</g>
</g>
<g>
	<g>
		<path d="M367.66,187.915H89.872c-4.512,0-8.17,3.658-8.17,8.17v163.404c0,4.512,3.658,8.17,8.17,8.17h166.042
			c4.512,0,8.17-3.658,8.17-8.17s-3.658-8.17-8.17-8.17h-65.276v-65.362h76.255v25.378c0,4.512,3.658,8.17,8.17,8.17
			s8.17-3.658,8.17-8.17v-25.378h21.272c4.512,0,8.17-3.658,8.17-8.17s-3.658-8.17-8.17-8.17h-21.272v-65.362h76.255v43.49
			c0,4.512,3.658,8.17,8.17,8.17c4.512,0,8.17-3.658,8.17-8.17v-51.66C375.83,191.573,372.172,187.915,367.66,187.915z
			 M174.298,351.319H98.043v-65.362h76.255V351.319z M174.298,269.617H98.043v-65.362h76.255V269.617z M266.894,269.617h-76.255
			v-65.362h76.255V269.617z"/>
	</g>
</g>
<g>
	<g>
		<path d="M449.362,8.17H8.17c-2.167,0-4.245,0.861-5.777,2.393C0,12.956,0,14.201,0,21.112v13.484v79.774
			c0,0.025,0,326.822,0,326.822c0,4.512,3.658,8.17,8.17,8.17h256.005c4.512,0,8.17-3.658,8.17-8.17c0-4.512-3.658-8.17-8.17-8.17
			H16.34c0-38.035,0-200.036,0-310.468h424.851v133.453c0,4.512,3.658,8.17,8.17,8.17s8.17-3.658,8.17-8.17V16.34
			C457.532,11.828,453.874,8.17,449.362,8.17z M441.191,106.213H16.34c0-37.941,0-67.957,0-81.702h424.851V106.213z"/>
	</g>
</g>
<g>
	<g>
		<path d="M394.894,269.617c-64.573,0-117.106,52.533-117.106,117.106S330.321,503.83,394.894,503.83S512,451.296,512,386.723
			S459.466,269.617,394.894,269.617z M394.894,487.489c-55.563,0-100.766-45.203-100.766-100.766
			c0-55.563,45.203-100.766,100.766-100.766c55.563,0,100.766,45.203,100.766,100.766
			C495.66,442.286,450.455,487.489,394.894,487.489z"/>
	</g>
</g>
<g>
	<g>
		<path d="M449.362,362.213h-29.957v-29.957c0-13.516-10.995-24.511-24.511-24.511s-24.511,10.995-24.511,24.511v29.957h-29.957
			c-13.516,0-24.511,10.995-24.511,24.511c0,13.516,10.995,24.511,24.511,24.511h29.957v29.957
			c0,13.516,10.995,24.511,24.511,24.511s24.511-10.996,24.511-24.511v-29.957h29.957c13.516,0,24.511-10.995,24.511-24.511
			C473.872,373.208,462.876,362.213,449.362,362.213z M449.362,394.894h-38.128c-4.512,0-8.17,3.658-8.17,8.17v38.128
			c0,4.506-3.665,8.17-8.17,8.17c-4.506,0-8.17-3.665-8.17-8.17v-38.128c0-4.512-3.658-8.17-8.17-8.17h-38.128
			c-4.506,0-8.17-3.665-8.17-8.17c0-4.506,3.665-8.17,8.17-8.17h38.128c4.512,0,8.17-3.658,8.17-8.17v-38.128
			c0-4.506,3.665-8.17,8.17-8.17c4.506,0,8.17,3.665,8.17,8.17v38.128c0,4.512,3.658,8.17,8.17,8.17h38.128
			c4.506,0,8.17,3.665,8.17,8.17C457.532,391.229,453.866,394.894,449.362,394.894z"/>
	</g>
</g>
<g>
</g>
<g>
</g>
<g>
</g>
<g>
</g>
<g>
</g>
<g>
</g>
<g>
</g>
<g>
</g>
<g>
</g>
<g>
</g>
<g>
</g>
<g>
</g>
<g>
</g>
<g>
</g>
<g>
</g>
</svg>
