<?xml version="1.0" encoding="iso-8859-1"?>
<!-- Generator: Adobe Illustrator 19.0.0, SVG Export Plug-In . SVG Version: 6.00 Build 0)  -->
<svg version="1.1" id="Layer_1" xmlns="http://www.w3.org/2000/svg" xmlns:xlink="http://www.w3.org/1999/xlink" x="0px" y="0px"
	 viewBox="0 0 511.795 511.795" style="enable-background:new 0 0 511.795 511.795;" xml:space="preserve">
<g>
	<g>
		<g>
			<path d="M307.098,179.004c0,4.71,3.814,8.533,8.533,8.533h85.333c4.719,0,8.533-3.823,8.533-8.533s-3.814-8.533-8.533-8.533
				h-85.333C310.912,170.47,307.098,174.293,307.098,179.004z"/>
			<path d="M358.298,230.204c0,4.71,3.814,8.533,8.533,8.533h51.2c4.719,0,8.533-3.823,8.533-8.533s-3.814-8.533-8.533-8.533h-51.2
				C362.112,221.67,358.298,225.493,358.298,230.204z"/>
			<path d="M349.764,136.337c4.719,0,8.533-3.823,8.533-8.533c0-4.71-3.814-8.533-8.533-8.533h-17.067
				c-4.719,0-8.533,3.823-8.533,8.533c0,4.71,3.814,8.533,8.533,8.533H349.764z"/>
			<path d="M247.364,221.67c-4.719,0-8.533,3.823-8.533,8.533s3.814,8.533,8.533,8.533h85.333c4.719,0,8.533-3.823,8.533-8.533
				s-3.814-8.533-8.533-8.533H247.364z"/>
			<path d="M290.031,460.604H127.898c-14.114,0-25.6-11.486-25.6-25.6V42.47c0-4.71-3.814-8.533-8.533-8.533
				c-23.526,0-42.667,19.14-42.667,42.667c0,4.71,3.814,8.533,8.533,8.533s8.533-3.823,8.533-8.533
				c0-11.128,7.134-20.617,17.067-24.141v382.541c0,23.526,19.14,42.667,42.667,42.667h162.133c4.719,0,8.533-3.823,8.533-8.533
				S294.75,460.604,290.031,460.604z"/>
			<path d="M162.031,187.537h119.467c4.719,0,8.533-3.823,8.533-8.533s-3.814-8.533-8.533-8.533H162.031
				c-4.719,0-8.533,3.823-8.533,8.533S157.312,187.537,162.031,187.537z"/>
			<path d="M162.031,136.337h34.133c4.719,0,8.533-3.823,8.533-8.533c0-4.71-3.814-8.533-8.533-8.533h-34.133
				c-4.719,0-8.533,3.823-8.533,8.533C153.498,132.514,157.312,136.337,162.031,136.337z"/>
			<path d="M298.564,119.27h-68.267c-4.719,0-8.533,3.823-8.533,8.533c0,4.71,3.814,8.533,8.533,8.533h68.267
				c4.719,0,8.533-3.823,8.533-8.533C307.098,123.093,303.283,119.27,298.564,119.27z"/>
			<path d="M418.031,0H93.764c-42.249,0-76.638,34.295-76.8,76.501v0.102v0.094V76.8v0.102
				c0.111,27.213,14.797,52.565,38.391,66.219c4.079,2.355,9.293,0.964,11.656-3.106c2.372-4.079,0.964-9.301-3.106-11.657
				C45.508,117.7,34.065,97.92,34.031,76.698c0.06-32.888,26.829-59.631,59.733-59.631h324.267c32.93,0,59.733,26.795,59.733,59.733
				v358.4c0,4.326-1.212,8.67-3.49,12.544c-2.381,4.062-1.033,9.293,3.029,11.682c1.365,0.802,2.85,1.178,4.318,1.178
				c2.927,0,5.777-1.502,7.364-4.207c3.823-6.494,5.845-13.824,5.845-21.197V76.8C494.831,34.449,460.382,0,418.031,0z"/>
			<path d="M443.631,392.337c0-28.237-22.963-51.2-51.2-51.2c-28.237,0-51.2,22.963-51.2,51.2c0,28.237,22.963,51.2,51.2,51.2
				C420.668,443.537,443.631,420.574,443.631,392.337z M392.431,426.47c-18.825,0-34.133-15.309-34.133-34.133
				s15.309-34.133,34.133-34.133c18.825,0,34.133,15.309,34.133,34.133S411.256,426.47,392.431,426.47z"/>
			<path d="M377.028,452.079c-4.07-2.355-9.293-0.956-11.657,3.123l-18.372,31.838l-2.918-4.403
				c-1.476-2.244-3.925-3.661-6.605-3.814l-5.274-0.316l18.68-32.341c2.355-4.079,0.956-9.301-3.123-11.657
				c-4.079-2.364-9.301-0.964-11.665,3.123l-25.574,44.297c-1.476,2.56-1.519,5.709-0.12,8.311s4.045,4.301,7.006,4.471
				l14.788,0.887l8.166,12.365c1.579,2.398,4.258,3.831,7.117,3.831h0.265c2.944-0.094,5.649-1.707,7.134-4.267l25.284-43.793
				C382.515,459.657,381.116,454.434,377.028,452.079z"/>
			<path d="M448.99,438.033c-2.364-4.087-7.595-5.487-11.657-3.123c-4.087,2.355-5.487,7.578-3.132,11.656l18.458,31.94
				l-5.274,0.316c-2.679,0.162-5.128,1.579-6.613,3.814l-2.901,4.403l-18.278-31.676c-2.372-4.079-7.595-5.478-11.665-3.123
				c-4.079,2.355-5.478,7.578-3.123,11.657l25.19,43.631c1.485,2.56,4.19,4.173,7.134,4.267h0.265c2.85,0,5.538-1.434,7.125-3.831
				l8.158-12.356l14.78-0.896c2.961-0.171,5.606-1.869,7.006-4.471s1.348-5.751-0.119-8.311L448.99,438.033z"/>
			<path d="M162.031,238.737h51.2c4.719,0,8.533-3.823,8.533-8.533s-3.814-8.533-8.533-8.533h-51.2
				c-4.719,0-8.533,3.823-8.533,8.533S157.312,238.737,162.031,238.737z"/>
			<path d="M162.031,289.937h102.4c4.719,0,8.533-3.823,8.533-8.533s-3.814-8.533-8.533-8.533h-102.4
				c-4.719,0-8.533,3.823-8.533,8.533S157.312,289.937,162.031,289.937z"/>
			<path d="M162.935,396.151c2.099,4.215,7.228,5.922,11.443,3.823c4.215-2.108,5.931-7.236,3.814-11.452
				c-8.448-16.896-10.342-32.051-5.086-40.559c2.799-4.531,7.68-6.827,14.524-6.827c4.07,0,5.589,1.399,6.545,2.765
				c6.357,9.165,0.316,37.077-6.007,53.973c-1.408,3.763,0,7.996,3.379,10.172c3.362,2.159,7.808,1.69,10.65-1.143
				c3.644-3.635,7.595-7.262,11.034-10.206v4.173c0,3.447,2.074,6.562,5.265,7.876c3.191,1.331,6.852,0.597,9.301-1.843
				c3.9-3.891,8.422-7.706,12.228-10.453c-0.102,0.213-0.205,0.418-0.307,0.614c-1.306,2.645-1.161,5.786,0.393,8.294
				c1.562,2.509,4.301,4.045,7.253,4.045h34.133c4.719,0,8.533-3.823,8.533-8.533s-3.814-8.533-8.533-8.533h-22.212
				c0.691-4.062,0.521-8.192-1.536-11.52c-2.176-3.524-5.965-5.547-10.385-5.547c-5.274,0-11.477,3.208-17.143,7.185
				c-0.435-3.721-2.637-6.784-5.982-8.166c-2.278-0.939-5.214-2.167-12.339,2.108c2.807-14.703,3.627-31.65-3.695-42.214
				c-3.2-4.617-9.361-10.112-20.574-10.112c-12.783,0-23.1,5.299-29.047,14.925C150.076,352.768,151.654,373.598,162.935,396.151z"
				/>
			<path d="M392.431,281.404c0-4.71-3.814-8.533-8.533-8.533h-85.333c-4.719,0-8.533,3.823-8.533,8.533s3.814,8.533,8.533,8.533
				h85.333C388.617,289.937,392.431,286.114,392.431,281.404z"/>
		</g>
	</g>
</g>
<g>
</g>
<g>
</g>
<g>
</g>
<g>
</g>
<g>
</g>
<g>
</g>
<g>
</g>
<g>
</g>
<g>
</g>
<g>
</g>
<g>
</g>
<g>
</g>
<g>
</g>
<g>
</g>
<g>
</g>
</svg>
