<?xml version="1.0" encoding="iso-8859-1"?>
<!-- Generator: Adobe Illustrator 16.0.0, SVG Export Plug-In . SVG Version: 6.00 Build 0)  -->
<!DOCTYPE svg PUBLIC "-//W3C//DTD SVG 1.1//EN" "http://www.w3.org/Graphics/SVG/1.1/DTD/svg11.dtd">
<svg version="1.1" id="Capa_1" xmlns="http://www.w3.org/2000/svg" xmlns:xlink="http://www.w3.org/1999/xlink" x="0px" y="0px"
	 width="486.06px" height="486.059px" viewBox="0 0 486.06 486.059" style="enable-background:new 0 0 486.06 486.059;"
	 xml:space="preserve">
<g>
	<g>
		<path d="M11.921,191.6c1.722,0.869,3.806,1.31,6.358,1.003c27.452-3.286,196.507-4.981,224.093-6.609
			c16.813-0.993,11.126-21.881,11.238-32.296c0.132-11.461,6.423-31.521-12.97-31.521c-28.099,0.005-197.63,0.124-225.741,1.653
			c-15.562,0.848-11.86,17.3-10.867,28.023C5.183,164.242-2.249,184.44,11.921,191.6z M229.68,146.985c0,0-2.922,8.195,0.5,14.965
			c-19.479,1.186-180.416,2.554-199.821,4.564c0.203-11.646-2.793-18.443-2.793-18.443
			C47.769,147.253,209.457,147.025,229.68,146.985z"/>
		<path d="M243.736,209.418c-28.074-1.528-197.643-1.648-225.747-1.653c-23.775-0.005-21.96,62.622-1.731,63.815
			c27.591,1.63,196.642,3.326,224.091,6.611c2.549,0.305,4.639-0.132,6.36-1.006c5.713-2.884,7.546-6.84,7.871-11.369
			c0.432-6.038-1.839-13.086-1.184-19.964c0.812-8.541,6.383-21.912,0.777-29.731C252.351,212.508,248.888,209.7,243.736,209.418z
			 M228.266,252.101c-19.405-2.011-180.347-3.372-199.821-4.56c3.422-6.771,0.5-14.968,0.5-14.968
			c20.223,0.041,181.911,0.27,202.113,1.087C231.059,233.661,228.062,240.458,228.266,252.101z"/>
		<path d="M249.477,297.083c-1.996-2.234-4.931-3.723-8.836-3.723c-28.104,0.005-197.673,0.127-225.756,1.65
			c-21.074,1.173-17.628,60.356-2.963,67.771c1.722,0.874,3.812,1.311,6.358,1.006c27.452-3.286,196.507-4.981,224.099-6.612
			c18.113-1.066,11.162-34.042,13.523-46.473C257.094,304.389,253.884,299.581,249.477,297.083z M30.359,337.696
			c0.203-11.649-2.793-18.443-2.793-18.443c20.203-0.822,181.891-1.046,202.113-1.087c0,0-2.922,8.196,0.5,14.96
			C210.706,334.314,49.765,335.685,30.359,337.696z"/>
		<path d="M477.965,200.049c-2.209-1.889-5.134-3.11-8.871-3.11h-52.887c-0.844-17.907-1.209-35.833-2.255-53.729
			c-0.467-8.049-6.312-12.52-12.568-13.437c-1.34-0.411-2.772-0.703-4.402-0.703h-49.495c-6.348,0-10.436,3.453-12.365,7.927
			c-2.772,2.277-4.646,5.745-4.6,10.455c0.172,18.329,1.924,36.508,4.066,54.677c-15.021,1.102-30.051,2.219-45.071,3.295
			c-2.474,0.178-4.575,0.896-6.378,1.935c-6.022,1.612-10.588,7.14-10.588,13.619v2.829c0,2.328,0.645,4.504,1.666,6.459
			c1.081,13.845,1.157,27.73,1.162,41.619c0,7.444,4.728,11.801,10.309,13.162c1.544,0.599,3.266,0.979,5.24,0.979h48.251
			c0.351,15.56,1.163,31.103,1.239,46.662c0.035,7.322,4.626,11.648,10.08,13.096c1.604,0.646,3.402,1.052,5.474,1.052h48.078
			c4.159,0,7.317-1.514,9.582-3.789c0.143-0.116,0.274-0.259,0.417-0.386c0.111-0.127,0.238-0.243,0.345-0.376
			c2.28-2.265,3.799-5.428,3.799-9.597c0-16.504-0.138-32.997-0.854-49.485h53.167c8.398,0,12.883-5.997,13.548-12.466
			c1.219-1.991,2.006-4.397,2.006-7.328v-50.901C486.064,206.059,482.525,201.946,477.965,200.049z M457.785,254.915h-55.146
			c-8.064,0-12.548,5.524-13.478,11.689c-0.508,1.554-0.787,3.28-0.66,5.276c0.97,15.543,1.28,31.103,1.371,46.661h-21.413
			c-0.387-14.137-1.092-28.274-1.168-42.422c-0.006-1.351-0.214-2.569-0.503-3.717c0.229-7.241-4.291-14.665-13.635-14.665h-49.561
			c-0.087-8.338-0.386-16.674-0.96-24.991c14.949-1.1,29.899-2.211,44.854-3.283c1.336-0.094,2.539-0.373,3.677-0.744
			c7.389,0.396,14.467-4.009,13.299-13.398c-2.401-19.292-4.575-38.567-5.321-57.973h27.218c0.711,16.965,1.087,33.948,2.143,50.898
			c0.062,1.026,0.239,1.979,0.468,2.887c0.02,7.051,4.575,14.081,13.67,14.081h55.146V254.915z"/>
	</g>
</g>
<g>
</g>
<g>
</g>
<g>
</g>
<g>
</g>
<g>
</g>
<g>
</g>
<g>
</g>
<g>
</g>
<g>
</g>
<g>
</g>
<g>
</g>
<g>
</g>
<g>
</g>
<g>
</g>
<g>
</g>
</svg>
