<?xml version="1.0" encoding="iso-8859-1"?>
<!-- Generator: Adobe Illustrator 18.0.0, SVG Export Plug-In . SVG Version: 6.00 Build 0)  -->
<!DOCTYPE svg PUBLIC "-//W3C//DTD SVG 1.1//EN" "http://www.w3.org/Graphics/SVG/1.1/DTD/svg11.dtd">
<svg version="1.1" id="Capa_1" xmlns="http://www.w3.org/2000/svg" xmlns:xlink="http://www.w3.org/1999/xlink" x="0px" y="0px"
	 viewBox="0 0 495.165 495.165" style="enable-background:new 0 0 495.165 495.165;" xml:space="preserve">
<g>
	<path d="M466.741,377.677h-38.904v-38.869c0-13.684-11.102-24.78-24.779-24.78c-13.685,0-24.784,11.097-24.784,24.78v38.885
		h-38.867c-13.698,0-24.781,11.099-24.781,24.782c0,13.698,11.102,24.783,24.781,24.783h38.867v38.851
		c0,13.684,11.1,24.784,24.784,24.784c13.678,0,24.779-11.101,24.779-24.784v-38.867h38.904c13.696,0,24.779-11.102,24.779-24.783
		C491.52,388.762,480.418,377.677,466.741,377.677z"/>
	<path d="M365.671,176.948c1.807,4.212,6.324,6.582,10.811,5.661c4.518-0.919,7.742-4.889,7.742-9.469L384.21,27.685
		C384.21,12.392,371.819,0,356.524,0H31.334C16.037,0,3.645,12.392,3.645,27.685l0.019,145.455c0,4.595,3.227,8.55,7.726,9.469
		c4.506,0.921,9.022-1.449,10.828-5.661l35.498-82.933h78.913v344.957c0,31.025,25.169,56.192,56.196,56.192
		c31.044,0,56.195-25.15,56.195-56.192V94.016h81.154L365.671,176.948z"/>
</g>
<g>
</g>
<g>
</g>
<g>
</g>
<g>
</g>
<g>
</g>
<g>
</g>
<g>
</g>
<g>
</g>
<g>
</g>
<g>
</g>
<g>
</g>
<g>
</g>
<g>
</g>
<g>
</g>
<g>
</g>
</svg>
